<svg width="54" height="53" viewBox="0 0 54 53" fill="none" xmlns="http://www.w3.org/2000/svg">
<g filter="url(#filter0_d)">
<path d="M8.35135 16.5789V4.73684H11.4733L19.0179 13.0263L15.6358 16.5789H8.35135Z" fill="url(#paint0_linear)"/>
<path d="M16.9597 16.5789H31.5286V1.05263L16.9597 16.5789Z" fill="url(#paint1_linear)"/>
<path d="M32.8294 15.5263V0L48.6992 0.263158L32.8294 15.5263Z" fill="url(#paint2_linear)"/>
<path d="M43.496 6.31579L48.1789 1.57895L50 2.10526L43.496 6.31579Z" fill="url(#paint3_linear)"/>
<path d="M24.8945 35.1316L8.89469 17.8947H31.2685L24.8945 35.1316Z" fill="url(#paint4_linear)"/>
<path d="M31.5286 45V21.0526L24.2441 40.9211L31.5286 45Z" fill="url(#paint5_linear)"/>
<path d="M4 8.68421H7.38208V5.52632L4 8.68421Z" fill="url(#paint6_linear)"/>
</g>
<defs>
<filter id="filter0_d" x="0" y="0" width="54" height="53" filterUnits="userSpaceOnUse" color-interpolation-filters="sRGB">
<feFlood flood-opacity="0" result="BackgroundImageFix"/>
<feColorMatrix in="SourceAlpha" type="matrix" values="0 0 0 0 0 0 0 0 0 0 0 0 0 0 0 0 0 0 127 0"/>
<feOffset dy="4"/>
<feGaussianBlur stdDeviation="2"/>
<feColorMatrix type="matrix" values="0 0 0 0 0 0 0 0 0 0 0 0 0 0 0 0 0 0 0.25 0"/>
<feBlend mode="normal" in2="BackgroundImageFix" result="effect1_dropShadow"/>
<feBlend mode="normal" in="SourceGraphic" in2="effect1_dropShadow" result="shape"/>
</filter>
<linearGradient id="paint0_linear" x1="13" y1="28.5" x2="52.1522" y2="-5.31527" gradientUnits="userSpaceOnUse">
<stop offset="0.280768" stop-color="#00484A"/>
<stop offset="1" stop-color="#00EDFF"/>
</linearGradient>
<linearGradient id="paint1_linear" x1="13" y1="28.5" x2="52.1522" y2="-5.31527" gradientUnits="userSpaceOnUse">
<stop offset="0.280768" stop-color="#00484A"/>
<stop offset="1" stop-color="#00EDFF"/>
</linearGradient>
<linearGradient id="paint2_linear" x1="13" y1="28.5" x2="52.1522" y2="-5.31527" gradientUnits="userSpaceOnUse">
<stop offset="0.280768" stop-color="#00484A"/>
<stop offset="1" stop-color="#00EDFF"/>
</linearGradient>
<linearGradient id="paint3_linear" x1="13" y1="28.5" x2="52.1522" y2="-5.31527" gradientUnits="userSpaceOnUse">
<stop offset="0.280768" stop-color="#00484A"/>
<stop offset="1" stop-color="#00EDFF"/>
</linearGradient>
<linearGradient id="paint4_linear" x1="13" y1="28.5" x2="52.1522" y2="-5.31527" gradientUnits="userSpaceOnUse">
<stop offset="0.280768" stop-color="#00484A"/>
<stop offset="1" stop-color="#00EDFF"/>
</linearGradient>
<linearGradient id="paint5_linear" x1="13" y1="28.5" x2="52.1522" y2="-5.31527" gradientUnits="userSpaceOnUse">
<stop offset="0.280768" stop-color="#00484A"/>
<stop offset="1" stop-color="#00EDFF"/>
</linearGradient>
<linearGradient id="paint6_linear" x1="13" y1="28.5" x2="52.1522" y2="-5.31527" gradientUnits="userSpaceOnUse">
<stop offset="0.280768" stop-color="#00484A"/>
<stop offset="1" stop-color="#00EDFF"/>
</linearGradient>
</defs>
</svg>
